<svg version="1" xmlns="http://www.w3.org/2000/svg" width="933.333" height="933.333" viewBox="0 0 700.000000 700.000000"><path d="M319.6 17.5c-16.4 9.6-30 17.5-30.1 17.5-.3 0-18.2 10.5-20.5 12-.8.6-2.2 1.3-3 1.7-.8.4-3.2 1.7-5.3 3.1-2.2 1.3-5.9 3.5-8.4 4.9-6.3 3.5-54.1 31.2-57.8 33.4-1.6 1.1-3.7 2.2-4.5 2.6-.8.4-4.6 2.6-8.5 4.8-3.8 2.3-14.4 8.5-23.5 13.7-52.1 30.1-68.2 39.4-74.5 43.1-3.8 2.3-7.9 4.7-9 5.3-3.2 1.7-19 10.7-19.4 11.1-.5.4-.5 358.2 0 358.6.4.4 32 18.6 37.4 21.7 6.5 3.7 47.1 27.1 48.5 28 .8.5 6.4 3.7 12.4 7.2s12.7 7.4 15 8.7c2.3 1.3 18.5 10.7 36.1 20.8 17.6 10.2 36.1 20.9 41 23.8 5 2.9 30.5 17.7 56.8 32.9l47.8 27.6 12.2-7.1c6.7-3.9 14.2-8.3 16.7-9.7 2.5-1.4 6.1-3.5 8-4.7 1.9-1.2 4.2-2.5 5-2.9.8-.4 2.4-1.2 3.5-1.9 2.3-1.4 16.2-9.4 21.5-12.5 3-1.7 39.8-23 96-55.5 8.5-5 19.8-11.5 25-14.5 12.6-7.2 14.2-8.1 23.3-13.6 4.3-2.5 8.1-4.6 8.3-4.6.2 0 2.1-1.1 4.2-2.4 2-1.4 6-3.7 8.7-5.3 6.3-3.5 26-14.8 30-17.2 1.7-1 9.5-5.5 17.5-10.1s14.7-8.5 14.9-8.6c.6-.5.6-358.3 0-358.7-.3-.3-8.7-5.1-19.9-11.4-1.9-1.1-23.5-13.6-48-27.8-24.5-14.2-59.5-34.5-77.8-45.2C480.8 75.7 465.4 67 464.9 67s-.9-.5-.9-1c0-.6-.4-1-.9-1s-11.9-6.4-25.3-14.2c-13.4-7.7-25.9-15-27.8-16.1-1.9-1-7.3-4.2-12-7-4.7-2.7-10.1-5.9-12-7-1.9-1-10.8-6.2-19.8-11.3-8.9-5.2-16.3-9.4-16.5-9.4-.1.1-13.7 7.9-30.1 17.5zM189.3 248.9c8.4 4.8 17.2 9.9 19.7 11.3 2.5 1.4 33.7 19.5 69.4 40.2 35.6 20.7 65.1 37.6 65.3 37.6.3 0 1.6.9 3 2 3 2.4 1.8 2.9 27.3-12 9.6-5.7 19.3-11.3 21.5-12.5 2.2-1.2 5.6-3.1 7.5-4.3 1.9-1.2 4.2-2.5 5-2.9.8-.4 4.7-2.6 8.7-4.9 3.9-2.4 12.9-7.6 20-11.7 7-4.1 20-11.6 28.8-16.7s17.8-10.3 20-11.5c2.2-1.3 8.1-4.6 13-7.5 24.3-14.2 27.5-16 28-16 .3 0 .5 49.7.5 110.4v110.4l-11.2 6.5c-6.2 3.6-12.7 7.3-14.5 8.4-1.7 1-11.4 6.6-21.5 12.4-18.3 10.6-47.5 27.5-66.3 38.4-27.5 15.9-34.2 19.8-48.2 27.9l-15.3 8.8-21.2-12.3c-11.7-6.7-26.7-15.4-33.3-19.2-6.6-3.9-14.1-8.2-16.6-9.6-4.2-2.4-22.5-13.1-25.9-15.1-3.5-2.1-31.8-18.5-35.5-20.5-2.2-1.2-13.1-7.5-24.2-13.9L173 460.8V350.4c0-60.7.2-110.4.5-110.4s7.4 4 15.8 8.9z"/></svg>